<svg width="24" height="48" viewBox="0 0 24 48" fill="none" xmlns="http://www.w3.org/2000/svg">
<path d="M16.3711 25.9H15.8711V26.4V47.5H7.51616V26.4V25.9H7.01616H0.5V17.3H7.01616H7.51616V16.8V11.2805C7.51616 7.71669 8.48531 5.03291 10.1626 3.24347C11.8361 1.45807 14.2734 0.5 17.3416 0.5C18.8503 0.5 20.3511 0.557882 21.4732 0.628477C22.0348 0.663813 22.4969 0.702047 22.8153 0.737217C22.8404 0.73999 22.8644 0.74272 22.8873 0.745403V6.7H19.8885C18.9685 6.7 18.2279 6.86301 17.642 7.18296C17.0488 7.50691 16.6485 7.97322 16.3847 8.51677C15.8773 9.56204 15.8711 10.9186 15.8711 12.1242V16.8V17.3H16.3711H23.4411L22.4815 25.9H16.3711Z" stroke="black"/>
</svg>
