<svg width="25" height="22" viewBox="0 0 25 22" fill="none" xmlns="http://www.w3.org/2000/svg">
<path d="M1.94024 11.3392L2.47693 10.4511L2.47721 10.4518L4.65079 6.85012L4.6511 6.84962L5.61602 5.24642L5.84632 4.86378L6.25243 5.04959L8.26457 5.9702L8.7736 6.20309L8.48494 6.6827L7.80724 7.80872L7.88934 7.84667L9.06434 5.89974L9.29503 5.51748L9.70086 5.70361L11.7136 6.62674L12.2226 6.86017L11.9332 7.33957L10.8162 9.19048L10.8955 9.22682L12.4862 6.58983L12.7168 6.20744L13.1227 6.39361L15.1343 7.31622L15.6432 7.5496L15.354 8.02896L13.8218 10.5689L13.9013 10.6053L16.1009 6.96062L15.7378 6.43005C15.3313 5.83596 15.1085 5.15206 15.0995 4.44829C15.0905 3.74448 15.2958 3.05588 15.6875 2.4533C16.0786 1.85153 16.64 1.35897 17.3078 1.01896C17.9755 0.679024 18.7301 0.501258 19.4955 0.5L19.4964 0.5C20.6164 0.500137 21.7033 0.878455 22.5266 1.57081C23.3517 2.26477 23.8518 3.22581 23.8945 4.25819C23.9372 5.29113 23.5173 6.28435 22.7484 7.03153C21.9816 7.77661 20.9262 8.22253 19.8089 8.29301L19.0034 8.34382L16.5394 12.4254L16.5394 12.4255L14.5359 15.7444L18.4175 15.0908L18.8198 15.023L18.9669 15.4035L19.7515 17.4329L19.9341 17.9051L19.4597 18.0818L11.1328 21.1832C10.5753 21.4056 9.96957 21.513 9.3611 21.4988C8.75052 21.4845 8.14953 21.3482 7.60403 21.0979C7.604 21.0979 7.60396 21.0979 7.60393 21.0979L7.07937 20.8574L7.07907 20.8572L4.94581 19.8774C4.94574 19.8773 4.94567 19.8773 4.94559 19.8773C4.11852 19.4981 3.38084 18.9787 2.77678 18.3456C2.17251 17.7123 1.71355 16.9774 1.43013 16.1813C1.14661 15.385 1.04531 14.5457 1.13342 13.7126C1.22152 12.8796 1.4968 12.0731 1.94024 11.3392ZM17.1417 5.08931L17.1774 5.17692L17.8022 4.14161L18.0329 3.75934L18.4387 3.94548L20.4514 4.86861L20.9604 5.10207L20.671 5.58149L20.1547 6.43674L20.1894 6.42824C20.6096 6.32543 20.9857 6.13124 21.2836 5.87046L21.2842 5.86995C21.6286 5.56949 21.8536 5.19556 21.9438 4.80014C22.0339 4.40574 21.9888 3.99599 21.81 3.61898C21.6305 3.24059 21.3209 2.90581 20.9092 2.66532C20.4972 2.42474 20.0068 2.29284 19.5002 2.29196C19.09 2.29244 18.6882 2.37878 18.3292 2.54118C17.9701 2.70363 17.6678 2.93576 17.4435 3.21284C17.2196 3.48949 17.0795 3.80302 17.0284 4.12609C16.9774 4.44881 17.0154 4.77844 17.1417 5.08931Z" stroke="white"/>
</svg>
