<svg width="39" height="39" viewBox="0 0 39 39" fill="none" xmlns="http://www.w3.org/2000/svg">
<path d="M30.7995 5.94725C30.3676 5.94138 29.9436 6.06371 29.5812 6.29877C29.2188 6.53384 28.9343 6.87108 28.7635 7.26786C28.5928 7.66465 28.5436 8.10315 28.622 8.52791C28.7005 8.95268 28.9032 9.34465 29.2044 9.65424C29.5056 9.96383 29.8919 10.1772 30.3143 10.2672C30.7368 10.3573 31.1765 10.3201 31.5778 10.1603C31.9791 10.0005 32.324 9.72528 32.5689 9.36946C32.8138 9.01364 32.9477 8.59319 32.9537 8.16127V8.10143C32.9485 7.53172 32.7199 6.98681 32.317 6.58395C31.9141 6.18109 31.3692 5.95246 30.7995 5.94725Z" stroke="black" stroke-width="1.25" stroke-linecap="round" stroke-linejoin="round"/>
<path d="M35.9555 1.00064H2.94474C2.42443 1.01365 1.92981 1.22953 1.56647 1.60219C1.20312 1.97485 0.999837 2.47477 1 2.99525V36.006C1 36.535 1.21015 37.0424 1.58421 37.4164C1.95827 37.7905 2.46561 38.0006 2.99461 38.0006H36.0054C36.5344 38.0006 37.0417 37.7905 37.4158 37.4164C37.7899 37.0424 38 36.535 38 36.006V2.94538C37.9935 2.68342 37.9355 2.4253 37.8293 2.18577C37.723 1.94624 37.5706 1.73 37.3807 1.5494C37.1908 1.3688 36.9673 1.22738 36.7227 1.13322C36.4782 1.03906 36.2175 0.994008 35.9555 1.00064Z" stroke="black" stroke-width="1.25" stroke-linecap="round" stroke-linejoin="round"/>
<path d="M19.4502 11.1931C17.817 11.1931 16.2204 11.6774 14.8625 12.5848C13.5045 13.4921 12.4461 14.7818 11.8211 16.2907C11.1961 17.7996 11.0326 19.4599 11.3512 21.0618C11.6698 22.6636 12.4563 24.135 13.6111 25.2898C14.766 26.4447 16.2374 27.2312 17.8392 27.5498C19.441 27.8684 21.1014 27.7049 22.6103 27.0799C24.1192 26.4549 25.4088 25.3965 26.3162 24.0385C27.2236 22.6805 27.7079 21.084 27.7079 19.4508C27.7079 17.2607 26.8379 15.1603 25.2893 13.6117C23.7406 12.0631 21.6403 11.1931 19.4502 11.1931Z" stroke="black" stroke-width="1.25" stroke-linecap="round" stroke-linejoin="round"/>
</svg>
