<svg width="69" height="69" viewBox="0 0 69 69" fill="none" xmlns="http://www.w3.org/2000/svg">
<path d="M34.74 1.39999C28.9833 1.40618 23.3272 2.90975 18.328 5.76289C13.3288 8.61603 9.15857 12.7205 6.22724 17.6728C3.29591 22.625 1.70444 28.2546 1.60931 34.0079C1.51418 39.7612 2.91866 45.4402 5.68467 50.4866L1.59998 67.65L18.7711 63.5671C23.1999 65.9956 28.1255 67.3799 33.1715 67.6143C38.2175 67.8487 43.2503 66.927 47.8853 64.9196C52.5204 62.9122 56.635 59.8723 59.9148 56.0322C63.1945 52.192 65.5526 47.6533 66.8088 42.7627C68.0651 37.8722 68.1862 32.7594 67.1629 27.8149C66.1397 22.8705 63.9991 18.2252 60.9049 14.2342C57.8106 10.2432 53.8445 7.01208 49.3097 4.7877C44.7749 2.56331 39.7914 1.40456 34.74 1.39999ZM18.17 16.4526H27.2025C27.6113 16.4526 28.0034 16.6149 28.2925 16.9039C28.5815 17.1928 28.7439 17.5847 28.7439 17.9933C28.6934 20.048 29.0388 22.0932 29.7613 24.0174C30.0724 24.6616 30.1408 25.3962 29.954 26.0867C29.7671 26.7772 29.3375 27.3772 28.7439 27.7767L25.5841 30.8581C26.9851 33.5929 28.8171 36.0847 31.0098 38.2381C33.1467 40.4655 35.6295 42.3332 38.3622 43.7692L41.445 40.6108C42.9864 39.0701 43.6955 39.0701 45.206 39.5939C47.1311 40.3161 49.1773 40.6613 51.2329 40.6108C51.6356 40.6295 52.0169 40.7978 52.302 41.0828C52.5871 41.3678 52.7555 41.7489 52.7743 42.1514V51.1799C52.7555 51.5825 52.5871 51.9636 52.302 52.2486C52.0169 52.5335 51.6356 52.7019 51.2329 52.7206C42.1658 52.3258 33.571 48.5687 27.1255 42.1823C20.7262 35.7464 16.9656 27.1515 16.5823 18.0857C16.586 17.6617 16.753 17.2553 17.0487 16.9512C17.3444 16.647 17.746 16.4684 18.17 16.4526Z" stroke="black" stroke-width="1.25" stroke-linecap="round" stroke-linejoin="round"/>
</svg>
